<?xml version="1.0" encoding="UTF-8"?>
<svg width="256px" height="256px" viewBox="0 0 256 256" version="1.1" xmlns="http://www.w3.org/2000/svg" xmlns:xlink="http://www.w3.org/1999/xlink">
    <!-- Generator: Sketch 41.2 (35397) - http://www.bohemiancoding.com/sketch -->
    <title>google</title>
    <desc>Created with Sketch.</desc>
    <defs></defs>
    <g id="Login" stroke="none" stroke-width="1" fill="none" fill-rule="evenodd">
        <g id="google">
            <g id="Google-icon">
                <rect id="Rectangle" fill="#FFFFFF" x="0" y="0" width="256" height="256"></rect>
                <g id="super-g" transform="translate(51.200000, 51.200000)">
                    <path d="M76.8,29.696 C91.2213333,29.696 100.949333,35.9253333 106.496,41.1306667 L128.170667,19.968 C114.858667,7.59466667 97.536,0 76.8,0 C46.7626667,0 20.8213333,17.2373333 8.192,42.3253333 L33.024,61.6106667 C39.2533333,43.0933333 56.4906667,29.696 76.8,29.696 L76.8,29.696 Z" id="Shape" fill="#EA4335"></path>
                    <path d="M150.528,78.5066667 C150.528,72.192 150.016,67.584 148.906667,62.8053333 L76.8,62.8053333 L76.8,91.3066667 L119.125333,91.3066667 C118.272,98.3893333 113.664,109.056 103.424,116.224 L127.658667,134.997333 C142.165333,121.6 150.528,101.888 150.528,78.5066667 L150.528,78.5066667 Z" id="Shape" fill="#4285F4"></path>
                    <path d="M33.1093333,91.9893333 C31.488,87.2106667 30.5493333,82.0906667 30.5493333,76.8 C30.5493333,71.5093333 31.488,66.3893333 33.024,61.6106667 L8.192,42.3253333 C2.98666667,52.736 0,64.4266667 0,76.8 C0,89.1733333 2.98666667,100.864 8.192,111.274667 L33.1093333,91.9893333 L33.1093333,91.9893333 Z" id="Shape" fill="#FBBC05"></path>
                    <path d="M76.8,153.6 C97.536,153.6 114.944,146.773333 127.658667,134.997333 L103.424,116.224 C96.9386667,120.746667 88.2346667,123.904 76.8,123.904 C56.4906667,123.904 39.2533333,110.506667 33.1093333,91.9893333 L8.27733333,111.274667 C20.9066667,136.362667 46.7626667,153.6 76.8,153.6 L76.8,153.6 Z" id="Shape" fill="#34A853"></path>
                    <polygon id="Shape" points="0 0 153.6 0 153.6 153.6 0 153.6"></polygon>
                </g>
            </g>
        </g>
    </g>
</svg>