<?xml version="1.0" encoding="UTF-8"?>
<svg width="16px" height="16px" viewBox="0 0 16 16" version="1.1" xmlns="http://www.w3.org/2000/svg" xmlns:xlink="http://www.w3.org/1999/xlink">
    <!-- Generator: Sketch 41.2 (35397) - http://www.bohemiancoding.com/sketch -->
    <title>mxm_icon</title>
    <desc>Created with Sketch.</desc>
    <defs></defs>
    <g id="Page-1" stroke="none" stroke-width="1" fill="none" fill-rule="evenodd">
        <g id="mxm_icon" stroke="#000000" stroke-width="0.875">
            <g id="Imported-Layers" transform="translate(1.000000, 1.500000)">
                <path d="M10.6386974,6.42737438 L13.84796,4.03599587 C13.893805,4.00965124 13.9349452,3.96210496 13.9374618,3.90773636 C13.9375712,3.90542727 13.9491692,3.90322314 13.9491692,3.90080909 L13.9491692,1.3234438 C13.9491692,0.519880165 13.1692564,0.0225859504 12.456634,0.0225859504 C12.1096778,0.0225859504 11.7773833,0.129643802 11.5057049,0.332004132 L6.98225403,3.70075785 L7.07525711,3.77108017 C7.11781969,3.79952397 7.14528295,3.84675537 7.14528295,3.90007438 C7.14528295,3.93397603 7.13401317,3.96535868 7.11519372,3.99107355 C7.10600283,4.00387851 7.09451422,4.01542397 7.08138437,4.02518512 L6.9806128,4.10023058 L10.2704052,6.55175041 C10.2718276,6.55269504 10.2734688,6.55300992 10.2748912,6.55395455 L10.3718332,6.62679587 L13.6209231,9.04829752 L13.6209231,11.5305702 C13.6209231,11.803043 13.4862327,12.0666992 13.2620406,12.2504818 C13.0460546,12.4275471 12.7468036,12.5413223 12.4505067,12.5413223 L12.4476619,12.5413223 C12.1743423,12.5413223 11.9156843,12.4448653 11.7021055,12.2857479 L7.24780517,8.96086694 L7.08061846,9.08209421 L7.07996197,9.08251405 C7.05052923,9.10413554 7.0147504,9.1121124 6.97951865,9.1121124 C7.01507865,9.1121124 7.05063865,9.10109174 7.08029022,9.07894545 L10.3710673,6.62679587 L10.1035467,6.42737438 L6.97951865,8.75525289 L3.85647532,6.42810909 L6.98050338,4.10023058 L9.6860176,6.11627686 L6.98050338,4.10023058 L7.08127495,4.02518512 C7.09429538,4.01542397 7.10567458,4.00387851 7.11486548,3.99107355 C7.13357551,3.96535868 7.14462646,3.93397603 7.14462646,3.90007438 C7.14462646,3.84675537 7.11650671,3.79952397 7.07394412,3.77108017 L2.46077268,0.333473554 C2.18898486,0.131008264 1.87211791,0.0240553719 1.52516172,0.0240553719 C0.812539323,0.0240553719 0.0534153846,0.521349587 0.0534153846,1.32491322 L0.0534153846,3.88894876 C0.0534153846,3.89010331 0.043568,3.89125785 0.043568,3.8924124 C0.0421456,3.91802231 0.0448809846,3.94342231 0.0534153846,3.96651322 L0.0534153846,11.5305702 C0.0534153846,12.3330843 0.8102416,12.8548339 1.52231692,12.8560934 C1.86806954,12.8554636 2.191392,12.7363355 2.46241391,12.534395 L6.98083163,9.16018347 L6.98334818,9.15829421 L11.4856818,12.5228496 C11.7573602,12.7252099 12.0891077,12.8318479 12.4173538,12.8318479 L12.4173538,12.831638 C12.8550154,12.831638 13.1869817,12.7025388 13.4613954,12.4777174 C13.7597712,12.2330587 13.9491692,11.8966661 13.9491692,11.5305702 L13.9491692,3.90773636 C13.9491692,3.96210496 13.9161258,4.00965124 13.8702807,4.03599587 L13.6209231,4.22177273 L13.6209231,8.63297603 L10.6498577,6.42737438 L10.4774191,6.55175041 C10.4477675,6.57379174 10.4094721,6.5848124 10.3739121,6.5848124 C10.3734745,6.5848124 10.3729274,6.58460248 10.3724897,6.58460248 C10.4075026,6.5842876 10.4425156,6.57347686 10.4718389,6.55175041 L10.6386974,6.42737438 L10.6386974,6.42737438 Z M0.381661538,4.23751653 L3.32143409,6.42810909 L3.32668603,6.43209752 L0.381661538,8.63444545 L0.381661538,4.23751653 L0.381661538,4.23751653 Z M3.68896037,6.55300992 C3.65952763,6.57452645 3.62429588,6.58554711 3.58906412,6.58554711 C3.62451471,6.58554711 3.66007471,6.57452645 3.68961686,6.55238017 L3.68896037,6.55300992 L3.68896037,6.55300992 Z M0.381661538,1.32491322 C0.381661538,0.715838017 0.970425723,0.338931405 1.52516172,0.338931405 C1.79848135,0.338931405 2.04576012,0.423003306 2.25933895,0.582120661 L6.71298277,3.90080909 L3.59902092,6.2286876 L0.381661538,3.82376942 L0.381661538,1.32491322 L0.381661538,1.32491322 Z M0.156812923,9.1055 C0.170599262,9.11011818 0.184495015,9.11316198 0.200250831,9.1133719 C0.199813169,9.1133719 0.199484923,9.11347686 0.199047262,9.11347686 C0.182744369,9.11347686 0.169942769,9.11022314 0.156812923,9.1055 L0.156812923,9.1055 Z M2.25835422,12.2857479 C2.04619778,12.4438157 1.79082228,12.5398529 1.51958154,12.5411124 C0.966267938,12.5385934 0.381661538,12.1377562 0.381661538,11.5305702 L0.381661538,9.03318347 L0.992855877,8.56989587 L0.3024448,9.08041488 C0.287673723,9.09133058 0.270823754,9.09962231 0.253098462,9.10518512 C0.269510769,9.09962231 0.285047754,9.09133058 0.299818831,9.08041488 L0.983664985,8.56989587 L3.58928295,6.6277405 L6.71199803,8.95467438 L2.25835422,12.2857479 L2.25835422,12.2857479 Z M13.7662267,9.11179752 C13.7904075,9.11137769 13.8233415,9.10633967 13.845334,9.09626364 C13.8225756,9.10686446 13.7925958,9.1121124 13.7683056,9.1121124 C13.7675397,9.1121124 13.7668832,9.11179752 13.7662267,9.11179752 L13.7662267,9.11179752 Z M7.25240062,3.90007438 L11.7016678,0.58065124 C11.9152466,0.421533884 12.1833143,0.337461983 12.456634,0.337461983 C13.01137,0.337461983 13.6209231,0.714368595 13.6209231,1.3234438 L13.6209231,3.8223 L10.38179,6.22805785 L7.25240062,3.90007438 L7.25240062,3.90007438 Z" id="Stroke-4"></path>
            </g>
        </g>
    </g>
</svg>