<svg xmlns="http://www.w3.org/2000/svg" width="80" height="80" viewBox="0 0 80 80">
    <g fill="none" fill-rule="evenodd">
        <circle cx="40" cy="40" r="40" fill="#F2F7FB"/>
        <path fill="#697A8D" d="M19.23 31.707l8.123 2.33a.925.925 0 1 1-.51 1.777l-8.123-2.33a.925.925 0 1 1 .51-1.777zm7-3l8.123 2.33a.925.925 0 1 1-.51 1.777l-8.123-2.33a.925.925 0 1 1 .51-1.778z"/>
        <g fill="#000" opacity=".4">
            <path stroke="#000" stroke-linecap="round" stroke-linejoin="round" stroke-width="3.36" d="M61.31 39.412c-2.807 9.18-1.725 22.06-1.725 22.06L43.519 56.56l-16.066-4.912s8.098-10.073 10.929-19.246c1.967-6.519 8.623-9.912 14.96-7.974 6.338 1.937 9.958 8.472 8.086 14.596" opacity=".1"/>
            <path d="M42.05 59.812c.185 2.98 2.304 5.723 5.482 6.695 3.18.972 6.47-.117 8.29-2.485l-13.772-4.21z" opacity=".1"/>
        </g>
        <path fill="#C4D6E8" stroke="#C4D6E8" stroke-linecap="round" stroke-linejoin="round" stroke-width="3.36" d="M57.31 35.412c-2.807 9.18-1.725 22.06-1.725 22.06L39.519 52.56l-16.066-4.912s8.098-10.073 10.929-19.246c1.967-6.519 8.623-9.912 14.96-7.974 6.338 1.937 9.958 8.472 8.086 14.596"/>
        <path fill="#697A8D" d="M38.05 55.812c.185 2.98 2.304 5.723 5.482 6.695 3.18.972 6.47-.117 8.29-2.485l-13.772-4.21z"/>
    </g>
</svg>
