<svg xmlns="http://www.w3.org/2000/svg" width="24" height="24" viewBox="0 0 24 24">
    <path fill="#9FA8A9" fill-rule="nonzero" d="M8.726 21.32c.516 1.407 1.908 2.415 3.544 2.415 1.636 0 3.028-1.008 3.543-2.415H8.726zM19.171 7.935c.003.034.005.068.005.103 0 .725.057 1.513.167 2.352.19 1.457.53 3.022.977 4.623.253.904.524 1.763.795 2.547.161.468.286.804.355.98a1 1 0 0 1-.932 1.365H4.001a1 1 0 0 1-.931-1.364c.07-.178.194-.516.357-.986.272-.788.544-1.65.798-2.558.447-1.596.787-3.156.98-4.608.11-.84.169-1.628.17-2.348C5.363 4.097 8.42 1 12.27 1c3.811 0 6.906 3.057 6.906 6.833 0 .035-.002.069-.005.102zm-1.995-.102C17.176 5.167 14.982 3 12.27 3 9.53 3 7.366 5.193 7.376 8.04c-.002.817-.067 1.69-.19 2.61-.205 1.556-.565 3.205-1.035 4.886-.233.833-.48 1.63-.73 2.369H19.12a46.877 46.877 0 0 1-.726-2.353c-.471-1.686-.831-3.342-1.035-4.903a20.289 20.289 0 0 1-.183-2.611c0-.035.002-.069.005-.103a1.012 1.012 0 0 1-.005-.102z"/>
</svg>
