<?xml version="1.0" encoding="UTF-8"?>
<svg width="24px" height="24px" viewBox="0 0 24 24" version="1.1" xmlns="http://www.w3.org/2000/svg" xmlns:xlink="http://www.w3.org/1999/xlink">
    <!-- Generator: Sketch 47.1 (45422) - http://www.bohemiancoding.com/sketch -->
    <title>translations-icon</title>
    <desc>Created with Sketch.</desc>
    <defs></defs>
    <g id="Lyrics" stroke="none" stroke-width="1" fill="none" fill-rule="evenodd">
        <g transform="translate(-582.000000, -416.000000)" id="Group-3-Copy" fill-rule="nonzero">
            <g transform="translate(567.000000, 406.000000)">
                <g id="Group-6" transform="translate(15.000000, 10.000000)">
                    <g id="world">
                        <circle id="Oval" fill="#5893BF" cx="12" cy="12" r="12"></circle>
                        <path d="M24,12 C24,9.59235937 23.2910625,7.35042187 22.0703906,5.47148438 C22.0703906,5.47148438 21.3858281,6.47151563 21.5144531,7.1143125 C21.6429844,7.75720312 22.3982813,7.80628125 22.3207031,8.27784375 C22.243125,8.74940625 21.6859688,8.14289062 21.0001406,9.38564062 C20.3143594,10.6284844 20.6573906,12.3432656 21.6429844,12.4716094 C22.628625,12.5998594 24,12 24,12 Z" id="Shape" fill="#68D798"></path>
                        <path d="M15.1514062,0.418125 C16.5481406,0.79725 17.843625,1.422375 18.9884531,2.24395313 C18.9884531,2.24395313 17.5970156,2.01445313 17.0699062,2.48573438 C16.5428437,2.95715625 15.7741406,4.07160938 15.1513594,2.48573438 C14.5286719,0.899953125 15.1514062,0.418125 15.1514062,0.418125 Z" id="Shape" fill="#68D798"></path>
                        <path d="M2.97745313,4.08839062 C5.17673438,1.58221875 8.40351563,0 12,0 C12,0 11.185875,0.4929375 12.7287188,1.328625 C14.2716094,2.16440625 13.5644063,2.55004687 13.2429844,2.80720312 C12.9216094,3.06435937 12.364125,2.2929375 12,1.77871875 C11.6358281,1.26435937 10.0719375,0.471609375 8.87184375,0.90028125 C7.67179688,1.32895312 6.64345313,1.64559375 6.81473438,2.04440625 C6.98596875,2.443125 9.043125,1.67198437 9.81454688,1.71464063 C10.5859688,1.75739063 10.3288125,2.22871875 9.600375,2.78592188 C8.87184375,3.343125 8.78596875,4.02876562 9.5574375,4.45729687 C10.3288125,4.88601562 11.2714688,4.92890625 11.4860156,4.67179687 C11.7004219,4.41464062 11.1002813,2.74321875 12.5574844,3.47170312 C14.0146875,4.2001875 15.2147344,4.62909375 14.0146875,5.700375 C12.8145938,6.7715625 11.4432656,7.97198437 11.4003281,8.6574375 C11.3573906,9.34298437 11.8290469,9.9005625 11.5718906,9.94321875 C11.3147344,9.985875 11.0787188,9.66473437 10.9073906,9.42885937 C10.7361563,9.193125 9.943125,9.10753125 9.5574375,9.25739062 C9.17170313,9.40725 8.44303125,9.985875 8.85028125,10.5430781 C9.25757813,11.100375 9.81426563,10.8428906 10.3715625,11.1000937 C10.9287656,11.35725 11.448375,12.3359531 11.3416875,12.5571562 C11.235,12.7782656 10.7600156,12.4982812 10.3715625,11.7429844 C9.98301563,10.9875937 9.25429688,11.4858281 8.74157813,11.35725 C8.2288125,11.2287187 7.84307813,11.1430312 7.32876563,10.2429844 C6.81445313,9.34303125 5.7496875,9.09117187 5.31459375,8.57160937 C4.06823438,7.08332812 4.15739063,5.95734375 3.90028125,5.44307812 C3.643125,4.92867187 2.97745313,4.08839062 2.97745313,4.08839062 Z" id="Shape" fill="#68D798"></path>
                        <path d="M13.1571094,12.1714687 C13.1571094,12.1714687 14.4428438,12.2998125 15.0856875,12.8571094 C15.7285313,13.4143125 15.8144063,13.6287187 16.8000469,13.8429375 C17.7856875,14.0570625 18.2143594,14.6140781 17.5714688,15.6856406 C16.928625,16.7570625 15.7712813,18.4714219 15.2142656,18.9857344 C14.6572969,19.5000937 13.9715156,19.928625 13.7143594,20.7857344 C13.45725,21.64275 13.371375,22.1567344 13.9285781,22.4998594 C13.9285781,22.4998594 13.6287656,23.2285312 12.9429844,22.2856406 C12.2571563,21.3426562 12.8143594,20.2285312 12.9429844,19.5856406 C13.0715156,18.9428437 13.4143125,17.0144531 13.2000469,16.5427969 C12.9859219,16.0712812 12,15.7711875 11.7428438,14.7856406 C11.4856875,13.8000469 11.9357344,11.8820156 13.1571094,12.1714687 Z" id="Shape" fill="#68D798"></path>
                        <path d="M3.5146875,3.51482813 C8.20101563,-1.17159375 15.7988438,-1.1715 20.4852188,3.51482813 C25.1715938,8.2010625 25.1715938,15.7989844 20.4852656,20.4853125 C20.4852656,20.4853125 25.9297031,13.2857813 18.2215313,5.57760938 C10.5133125,-2.13060938 3.5146875,3.51482813 3.5146875,3.51482813 Z" id="Shape" fill="#253744" opacity="0.194146286"></path>
                    </g>
                </g>
            </g>
        </g>
    </g>
</svg>